<?xml version="1.0" encoding="UTF-8" standalone="no"?>
<!-- Created with Inkscape (http://www.inkscape.org/) -->

<svg
   xmlns:dc="http://purl.org/dc/elements/1.1/"
   xmlns:cc="http://creativecommons.org/ns#"
   xmlns:rdf="http://www.w3.org/1999/02/22-rdf-syntax-ns#"
   xmlns:svg="http://www.w3.org/2000/svg"
   xmlns="http://www.w3.org/2000/svg"
   xmlns:xlink="http://www.w3.org/1999/xlink"
   xmlns:sodipodi="http://sodipodi.sourceforge.net/DTD/sodipodi-0.dtd"
   xmlns:inkscape="http://www.inkscape.org/namespaces/inkscape"
   width="190"
   height="32"
   id="svg2"
   version="1.1"
   inkscape:version="0.48.4 r9939"
   sodipodi:docname="digitation.svg"
   inkscape:export-filename="/home/markus/Dokumente/GitHub/team61/resources/animations/digitation.png"
   inkscape:export-xdpi="90.947365"
   inkscape:export-ydpi="90.947365">
  <defs
     id="defs4">
    <linearGradient
       id="linearGradient3801">
      <stop
         style="stop-color:#80fbf9;stop-opacity:1;"
         offset="0"
         id="stop3803" />
      <stop
         style="stop-color:#80fbf9;stop-opacity:0;"
         offset="1"
         id="stop3805" />
    </linearGradient>
    <linearGradient
       id="linearGradient3785">
      <stop
         style="stop-color:#f6fcfa;stop-opacity:1"
         offset="0"
         id="stop3787" />
      <stop
         id="stop3795"
         offset="0.27204147"
         style="stop-color:#80fafb;stop-opacity:1" />
      <stop
         style="stop-color:#7bf9f6;stop-opacity:0.5017668"
         offset="0.73371726"
         id="stop3797" />
      <stop
         style="stop-color:#80fbf9;stop-opacity:0"
         offset="1"
         id="stop3789" />
    </linearGradient>
    <radialGradient
       inkscape:collect="always"
       xlink:href="#linearGradient3785"
       id="radialGradient3793"
       cx="326.78571"
       cy="240.57646"
       fx="326.78571"
       fy="240.57646"
       r="73.214287"
       gradientTransform="matrix(1,0,0,0.88292686,0,28.165042)"
       gradientUnits="userSpaceOnUse" />
    <radialGradient
       inkscape:collect="always"
       xlink:href="#linearGradient3801"
       id="radialGradient3807"
       cx="138.3909"
       cy="-103.25233"
       fx="138.3909"
       fy="-103.25233"
       r="15.152288"
       gradientTransform="matrix(1,0,0,0.93333332,0,-6.8834902)"
       gradientUnits="userSpaceOnUse" />
    <radialGradient
       inkscape:collect="always"
       xlink:href="#linearGradient3801"
       id="radialGradient3995"
       gradientUnits="userSpaceOnUse"
       gradientTransform="matrix(1,0,0,0.93333332,0,-6.8834902)"
       cx="138.3909"
       cy="-103.25233"
       fx="138.3909"
       fy="-103.25233"
       r="15.152288" />
    <radialGradient
       inkscape:collect="always"
       xlink:href="#linearGradient3801"
       id="radialGradient3999"
       gradientUnits="userSpaceOnUse"
       gradientTransform="matrix(1,0,0,0.93333332,0,-6.8834902)"
       cx="138.3909"
       cy="-103.25233"
       fx="138.3909"
       fy="-103.25233"
       r="15.152288" />
    <radialGradient
       inkscape:collect="always"
       xlink:href="#linearGradient3801"
       id="radialGradient4003"
       gradientUnits="userSpaceOnUse"
       gradientTransform="matrix(1,0,0,0.93333332,0,-6.8834902)"
       cx="138.3909"
       cy="-103.25233"
       fx="138.3909"
       fy="-103.25233"
       r="15.152288" />
    <radialGradient
       inkscape:collect="always"
       xlink:href="#linearGradient3785"
       id="radialGradient4015"
       gradientUnits="userSpaceOnUse"
       gradientTransform="matrix(1,0,0,0.88292686,0,28.165042)"
       cx="326.78571"
       cy="240.57646"
       fx="326.78571"
       fy="240.57646"
       r="73.214287" />
    <radialGradient
       inkscape:collect="always"
       xlink:href="#linearGradient3801"
       id="radialGradient4017"
       gradientUnits="userSpaceOnUse"
       gradientTransform="matrix(1,0,0,0.93333332,0,-6.8834902)"
       cx="138.3909"
       cy="-103.25233"
       fx="138.3909"
       fy="-103.25233"
       r="15.152288" />
    <radialGradient
       inkscape:collect="always"
       xlink:href="#linearGradient3801"
       id="radialGradient4019"
       gradientUnits="userSpaceOnUse"
       gradientTransform="matrix(1,0,0,0.93333332,0,-6.8834902)"
       cx="138.3909"
       cy="-103.25233"
       fx="138.3909"
       fy="-103.25233"
       r="15.152288" />
    <radialGradient
       inkscape:collect="always"
       xlink:href="#linearGradient3785"
       id="radialGradient4027"
       gradientUnits="userSpaceOnUse"
       gradientTransform="matrix(1,0,0,0.88292686,0,28.165042)"
       cx="326.78571"
       cy="240.57646"
       fx="326.78571"
       fy="240.57646"
       r="73.214287" />
    <radialGradient
       inkscape:collect="always"
       xlink:href="#linearGradient3785"
       id="radialGradient4039"
       gradientUnits="userSpaceOnUse"
       gradientTransform="matrix(1,0,0,0.88292686,0,28.165042)"
       cx="326.78571"
       cy="240.57646"
       fx="326.78571"
       fy="240.57646"
       r="73.214287" />
    <radialGradient
       inkscape:collect="always"
       xlink:href="#linearGradient3801"
       id="radialGradient4041"
       gradientUnits="userSpaceOnUse"
       gradientTransform="matrix(1,0,0,0.93333332,0,-6.8834902)"
       cx="138.3909"
       cy="-103.25233"
       fx="138.3909"
       fy="-103.25233"
       r="15.152288" />
    <radialGradient
       inkscape:collect="always"
       xlink:href="#linearGradient3801"
       id="radialGradient4043"
       gradientUnits="userSpaceOnUse"
       gradientTransform="matrix(1,0,0,0.93333332,0,-6.8834902)"
       cx="138.3909"
       cy="-103.25233"
       fx="138.3909"
       fy="-103.25233"
       r="15.152288" />
    <radialGradient
       inkscape:collect="always"
       xlink:href="#linearGradient3801"
       id="radialGradient4045"
       gradientUnits="userSpaceOnUse"
       gradientTransform="matrix(1,0,0,0.93333332,0,-6.8834902)"
       cx="138.3909"
       cy="-103.25233"
       fx="138.3909"
       fy="-103.25233"
       r="15.152288" />
    <radialGradient
       inkscape:collect="always"
       xlink:href="#linearGradient3801"
       id="radialGradient4047"
       gradientUnits="userSpaceOnUse"
       gradientTransform="matrix(1,0,0,0.93333332,0,-6.8834902)"
       cx="138.3909"
       cy="-103.25233"
       fx="138.3909"
       fy="-103.25233"
       r="15.152288" />
    <radialGradient
       inkscape:collect="always"
       xlink:href="#linearGradient3785"
       id="radialGradient4051"
       gradientUnits="userSpaceOnUse"
       gradientTransform="matrix(1,0,0,0.88292686,0,28.165042)"
       cx="326.78571"
       cy="240.57646"
       fx="326.78571"
       fy="240.57646"
       r="73.214287" />
    <radialGradient
       inkscape:collect="always"
       xlink:href="#linearGradient3785"
       id="radialGradient4055"
       gradientUnits="userSpaceOnUse"
       gradientTransform="matrix(1,0,0,0.88292686,0,28.165042)"
       cx="326.78571"
       cy="240.57646"
       fx="326.78571"
       fy="240.57646"
       r="73.214287" />
    <radialGradient
       inkscape:collect="always"
       xlink:href="#linearGradient3801"
       id="radialGradient4063"
       gradientUnits="userSpaceOnUse"
       gradientTransform="matrix(1,0,0,0.93333332,0,-6.8834902)"
       cx="138.3909"
       cy="-103.25233"
       fx="138.3909"
       fy="-103.25233"
       r="15.152288" />
    <radialGradient
       inkscape:collect="always"
       xlink:href="#linearGradient3801"
       id="radialGradient4067"
       gradientUnits="userSpaceOnUse"
       gradientTransform="matrix(1,0,0,0.93333332,0,-6.8834902)"
       cx="138.3909"
       cy="-103.25233"
       fx="138.3909"
       fy="-103.25233"
       r="15.152288" />
  </defs>
  <sodipodi:namedview
     id="base"
     pagecolor="#ffffff"
     bordercolor="#666666"
     borderopacity="1.0"
     inkscape:pageopacity="0.0"
     inkscape:pageshadow="2"
     inkscape:zoom="3.959798"
     inkscape:cx="109.40929"
     inkscape:cy="13.625982"
     inkscape:document-units="px"
     inkscape:current-layer="layer1"
     showgrid="true"
     inkscape:window-width="1366"
     inkscape:window-height="702"
     inkscape:window-x="-4"
     inkscape:window-y="-3"
     inkscape:window-maximized="1"
     showguides="false">
    <inkscape:grid
       type="xygrid"
       id="grid3991"
       empspacing="4"
       visible="true"
       enabled="true"
       snapvisiblegridlinesonly="true"
       spacingx="8px"
       spacingy="8px"
       dotted="false" />
  </sodipodi:namedview>
  <metadata
     id="metadata7">
    <rdf:RDF>
      <cc:Work
         rdf:about="">
        <dc:format>image/svg+xml</dc:format>
        <dc:type
           rdf:resource="http://purl.org/dc/dcmitype/StillImage" />
        <dc:title></dc:title>
      </cc:Work>
    </rdf:RDF>
  </metadata>
  <g
     inkscape:label="Ebene 1"
     inkscape:groupmode="layer"
     id="layer1"
     transform="translate(0,-1020.3622)">
    <path
       sodipodi:type="arc"
       style="fill:url(#radialGradient3793);fill-opacity:1;stroke:none"
       id="path3015"
       sodipodi:cx="326.78571"
       sodipodi:cy="240.57646"
       sodipodi:rx="73.214287"
       sodipodi:ry="64.64286"
       d="m 399.99999,240.57646 c 0,35.70127 -32.77915,64.64286 -73.21428,64.64286 -40.43514,0 -73.21429,-28.94159 -73.21429,-64.64286 0,-35.70126 32.77915,-64.64286 73.21429,-64.64286 40.43513,0 73.21428,28.9416 73.21428,64.64286 z"
       transform="matrix(0.12191157,0,0,0.13133184,40.190231,1004.9034)" />
    <path
       sodipodi:type="arc"
       style="fill:url(#radialGradient3807);fill-opacity:1;stroke:none"
       id="path3799"
       sodipodi:cx="138.3909"
       sodipodi:cy="-103.25233"
       sodipodi:rx="15.152288"
       sodipodi:ry="14.142136"
       d="m 153.54319,-103.25233 c 0,7.810489 -6.78391,14.142139 -15.15229,14.142139 -8.36838,0 -15.15229,-6.33165 -15.15229,-14.142139 0,-7.81048 6.78391,-14.14213 15.15229,-14.14213 8.36838,0 15.15229,6.33165 15.15229,14.14213 z"
       transform="matrix(0.27473836,0,0,0.27473836,33.69248,1052.9819)" />
    <path
       transform="matrix(0.18635001,0,0,0.18635001,61.047174,1065.7215)"
       d="m 153.54319,-103.25233 c 0,7.810489 -6.78391,14.142139 -15.15229,14.142139 -8.36838,0 -15.15229,-6.33165 -15.15229,-14.142139 0,-7.81048 6.78391,-14.14213 15.15229,-14.14213 8.36838,0 15.15229,6.33165 15.15229,14.14213 z"
       sodipodi:ry="14.142136"
       sodipodi:rx="15.152288"
       sodipodi:cy="-103.25233"
       sodipodi:cx="138.3909"
       id="path3993"
       style="fill:url(#radialGradient3995);fill-opacity:1;stroke:none"
       sodipodi:type="arc" />
    <path
       sodipodi:type="arc"
       style="fill:url(#radialGradient3999);fill-opacity:1;stroke:none"
       id="path3997"
       sodipodi:cx="138.3909"
       sodipodi:cy="-103.25233"
       sodipodi:rx="15.152288"
       sodipodi:ry="14.142136"
       d="m 153.54319,-103.25233 c 0,7.810489 -6.78391,14.142139 -15.15229,14.142139 -8.36838,0 -15.15229,-6.33165 -15.15229,-14.142139 0,-7.81048 6.78391,-14.14213 15.15229,-14.14213 8.36838,0 15.15229,6.33165 15.15229,14.14213 z"
       transform="matrix(0.15099467,0,0,0.16740965,68.350745,1048.739)" />
    <path
       transform="matrix(0.15099467,0,0,0.16740965,48.191023,1059.6453)"
       d="m 153.54319,-103.25233 c 0,7.810489 -6.78391,14.142139 -15.15229,14.142139 -8.36838,0 -15.15229,-6.33165 -15.15229,-14.142139 0,-7.81048 6.78391,-14.14213 15.15229,-14.14213 8.36838,0 15.15229,6.33165 15.15229,14.14213 z"
       sodipodi:ry="14.142136"
       sodipodi:rx="15.152288"
       sodipodi:cy="-103.25233"
       sodipodi:cx="138.3909"
       id="path4001"
       style="fill:url(#radialGradient4003);fill-opacity:1;stroke:none"
       sodipodi:type="arc" />
    <path
       transform="matrix(0.11215547,0,0,0.12082188,11.225953,1007.448)"
       d="m 399.99999,240.57646 c 0,35.70127 -32.77915,64.64286 -73.21428,64.64286 -40.43514,0 -73.21429,-28.94159 -73.21429,-64.64286 0,-35.70126 32.77915,-64.64286 73.21429,-64.64286 40.43513,0 73.21428,28.9416 73.21428,64.64286 z"
       sodipodi:ry="64.64286"
       sodipodi:rx="73.214287"
       sodipodi:cy="240.57646"
       sodipodi:cx="326.78571"
       id="path4005"
       style="fill:url(#radialGradient4015);fill-opacity:1;stroke:none"
       sodipodi:type="arc" />
    <path
       transform="matrix(0.15688723,0,0,0.15688723,22.440726,1041.8109)"
       d="m 153.54319,-103.25233 c 0,7.810489 -6.78391,14.142139 -15.15229,14.142139 -8.36838,0 -15.15229,-6.33165 -15.15229,-14.142139 0,-7.81048 6.78391,-14.14213 15.15229,-14.14213 8.36838,0 15.15229,6.33165 15.15229,14.14213 z"
       sodipodi:ry="14.142136"
       sodipodi:rx="15.152288"
       sodipodi:cy="-103.25233"
       sodipodi:cx="138.3909"
       id="path4007"
       style="fill:url(#radialGradient4017);fill-opacity:1;stroke:none"
       sodipodi:type="arc" />
    <path
       sodipodi:type="arc"
       style="fill:url(#radialGradient4019);fill-opacity:1;stroke:none"
       id="path4009"
       sodipodi:cx="138.3909"
       sodipodi:cy="-103.25233"
       sodipodi:rx="15.152288"
       sodipodi:ry="14.142136"
       d="m 153.54319,-103.25233 c 0,7.810489 -6.78391,14.142139 -15.15229,14.142139 -8.36838,0 -15.15229,-6.33165 -15.15229,-14.142139 0,-7.81048 6.78391,-14.14213 15.15229,-14.14213 8.36838,0 15.15229,6.33165 15.15229,14.14213 z"
       transform="matrix(0.08028399,0,0,0.08028399,39.582978,1054.8746)" />
    <path
       sodipodi:type="arc"
       style="fill:url(#radialGradient4027);fill-opacity:1;stroke:none"
       id="path4025"
       sodipodi:cx="326.78571"
       sodipodi:cy="240.57646"
       sodipodi:rx="73.214287"
       sodipodi:ry="64.64286"
       d="m 399.99999,240.57646 c 0,35.70127 -32.77915,64.64286 -73.21428,64.64286 -40.43514,0 -73.21429,-28.94159 -73.21429,-64.64286 0,-35.70126 32.77915,-64.64286 73.21429,-64.64286 40.43513,0 73.21428,28.9416 73.21428,64.64286 z"
       transform="matrix(0.08288718,0,0,0.08929198,-11.175459,1014.9615)" />
    <path
       transform="matrix(0.21619918,0,0,0.23290518,41.594505,980.47015)"
       d="m 399.99999,240.57646 c 0,35.70127 -32.77915,64.64286 -73.21428,64.64286 -40.43514,0 -73.21429,-28.94159 -73.21429,-64.64286 0,-35.70126 32.77915,-64.64286 73.21429,-64.64286 40.43513,0 73.21428,28.9416 73.21428,64.64286 z"
       sodipodi:ry="64.64286"
       sodipodi:rx="73.214287"
       sodipodi:cy="240.57646"
       sodipodi:cx="326.78571"
       id="path4029"
       style="fill:url(#radialGradient4039);fill-opacity:1;stroke:none"
       sodipodi:type="arc" />
    <path
       transform="matrix(0.27473836,0,0,0.27473836,63.794192,1053.9181)"
       d="m 153.54319,-103.25233 c 0,7.810489 -6.78391,14.142139 -15.15229,14.142139 -8.36838,0 -15.15229,-6.33165 -15.15229,-14.142139 0,-7.81048 6.78391,-14.14213 15.15229,-14.14213 8.36838,0 15.15229,6.33165 15.15229,14.14213 z"
       sodipodi:ry="14.142136"
       sodipodi:rx="15.152288"
       sodipodi:cy="-103.25233"
       sodipodi:cx="138.3909"
       id="path4031"
       style="fill:url(#radialGradient4041);fill-opacity:1;stroke:none"
       sodipodi:type="arc" />
    <path
       sodipodi:type="arc"
       style="fill:url(#radialGradient4043);fill-opacity:1;stroke:none"
       id="path4033"
       sodipodi:cx="138.3909"
       sodipodi:cy="-103.25233"
       sodipodi:rx="15.152288"
       sodipodi:ry="14.142136"
       d="m 153.54319,-103.25233 c 0,7.810489 -6.78391,14.142139 -15.15229,14.142139 -8.36838,0 -15.15229,-6.33165 -15.15229,-14.142139 0,-7.81048 6.78391,-14.14213 15.15229,-14.14213 8.36838,0 15.15229,6.33165 15.15229,14.14213 z"
       transform="matrix(0.18635001,0,0,0.18635001,95.222763,1065.1489)" />
    <path
       transform="matrix(0.15099467,0,0,0.16740965,101.18705,1044.7111)"
       d="m 153.54319,-103.25233 c 0,7.810489 -6.78391,14.142139 -15.15229,14.142139 -8.36838,0 -15.15229,-6.33165 -15.15229,-14.142139 0,-7.81048 6.78391,-14.14213 15.15229,-14.14213 8.36838,0 15.15229,6.33165 15.15229,14.14213 z"
       sodipodi:ry="14.142136"
       sodipodi:rx="15.152288"
       sodipodi:cy="-103.25233"
       sodipodi:cx="138.3909"
       id="path4035"
       style="fill:url(#radialGradient4045);fill-opacity:1;stroke:none"
       sodipodi:type="arc" />
    <path
       sodipodi:type="arc"
       style="fill:url(#radialGradient4047);fill-opacity:1;stroke:none"
       id="path4037"
       sodipodi:cx="138.3909"
       sodipodi:cy="-103.25233"
       sodipodi:rx="15.152288"
       sodipodi:ry="14.142136"
       d="m 153.54319,-103.25233 c 0,7.810489 -6.78391,14.142139 -15.15229,14.142139 -8.36838,0 -15.15229,-6.33165 -15.15229,-14.142139 0,-7.81048 6.78391,-14.14213 15.15229,-14.14213 8.36838,0 15.15229,6.33165 15.15229,14.14213 z"
       transform="matrix(0.15099467,0,0,0.16740965,81.489074,1063.6515)" />
    <path
       sodipodi:type="arc"
       style="fill:url(#radialGradient4051);fill-opacity:1;stroke:none"
       id="path4049"
       sodipodi:cx="326.78571"
       sodipodi:cy="240.57646"
       sodipodi:rx="73.214287"
       sodipodi:ry="64.64286"
       d="m 399.99999,240.57646 c 0,35.70127 -32.77915,64.64286 -73.21428,64.64286 -40.43514,0 -73.21429,-28.94159 -73.21429,-64.64286 0,-35.70126 32.77915,-64.64286 73.21429,-64.64286 40.43513,0 73.21428,28.9416 73.21428,64.64286 z"
       transform="matrix(0.12916446,0,0,0.13914517,101.93997,1002.8454)" />
    <path
       transform="matrix(0.06097055,0,0,0.06568183,156.03393,1020.5013)"
       d="m 399.99999,240.57646 c 0,35.70127 -32.77915,64.64286 -73.21428,64.64286 -40.43514,0 -73.21429,-28.94159 -73.21429,-64.64286 0,-35.70126 32.77915,-64.64286 73.21429,-64.64286 40.43513,0 73.21428,28.9416 73.21428,64.64286 z"
       sodipodi:ry="64.64286"
       sodipodi:rx="73.214287"
       sodipodi:cy="240.57646"
       sodipodi:cx="326.78571"
       id="path4053"
       style="fill:url(#radialGradient4055);fill-opacity:1;stroke:none"
       sodipodi:type="arc" />
    <path
       sodipodi:type="arc"
       style="fill:url(#radialGradient4063);fill-opacity:1;stroke:none"
       id="path4061"
       sodipodi:cx="138.3909"
       sodipodi:cy="-103.25233"
       sodipodi:rx="15.152288"
       sodipodi:ry="14.142136"
       d="m 153.54319,-103.25233 c 0,7.810489 -6.78391,14.142139 -15.15229,14.142139 -8.36838,0 -15.15229,-6.33165 -15.15229,-14.142139 0,-7.81048 6.78391,-14.14213 15.15229,-14.14213 8.36838,0 15.15229,6.33165 15.15229,14.14213 z"
       transform="matrix(0.15099467,0,0,0.16740965,114.38666,1048.841)" />
    <path
       transform="matrix(0.109328,0,0,0.1212133,136.12149,1052.4638)"
       d="m 153.54319,-103.25233 c 0,7.810489 -6.78391,14.142139 -15.15229,14.142139 -8.36838,0 -15.15229,-6.33165 -15.15229,-14.142139 0,-7.81048 6.78391,-14.14213 15.15229,-14.14213 8.36838,0 15.15229,6.33165 15.15229,14.14213 z"
       sodipodi:ry="14.142136"
       sodipodi:rx="15.152288"
       sodipodi:cy="-103.25233"
       sodipodi:cx="138.3909"
       id="path4065"
       style="fill:url(#radialGradient4067);fill-opacity:1;stroke:none"
       sodipodi:type="arc" />
  </g>
</svg>
